<?xml version="1.0" encoding="utf-8"?>
<!-- Generator: Adobe Illustrator 25.0.1, SVG Export Plug-In . SVG Version: 6.00 Build 0)  -->
<svg version="1.1" id="圖層_1" xmlns="http://www.w3.org/2000/svg" xmlns:xlink="http://www.w3.org/1999/xlink" x="0px" y="0px"
	 viewBox="0 0 89.9 84.8" style="enable-background:new 0 0 89.9 84.8;" xml:space="preserve">
<style type="text/css">
	.st0{fill:#BA9477;}
</style>
<g>
	<g>
		<path class="st0" d="M70.7,35.3c-0.2,0.5-0.3,1.2-0.7,1.7c-0.5,1.2-1.5,1.9-2.7,2.4c-0.3,0.2-0.3,0.3-0.5,0.5
			c-0.3,2.7-0.8,5.4-1.7,7.9c-0.3,0.8-0.7,1.7-1,2.5c0,0.2-0.2,0.3-0.5,0.3c-1.5,0-3.2,0-4.7,0c-10.5,0-21.1,0-31.6,0
			c-0.3,0-0.5-0.2-0.7-0.3c-1-2.2-1.5-4.6-2-6.9c-0.2-1.2-0.3-2.2-0.5-3.4c0-0.3-0.2-0.3-0.5-0.5c-2-0.5-3.4-2.4-3.4-4.6
			c0-2,1.4-3.9,3.2-4.6c3.2-1,6.4,1.4,6.3,4.7c0,1-0.3,1.7-1.4,3c0.5,0.7,1.2,1.2,1.9,1.5c3.7,2,7.9,1,10.3-2.4
			c0.5-0.8,0.8-1.7,1.2-2.5c0-0.2,0-0.3-0.2-0.5c-2.2-2.4-1.4-6.3,1.7-7.6c2-0.8,4.4-0.3,5.7,1.5c1.4,1.9,1.4,4.2-0.2,5.9
			c-0.3,0.3-0.3,0.5-0.2,0.8c0.8,2.9,2.7,4.7,5.6,5.4c2.9,0.8,5.6,0,7.6-2.2l0.2-0.2c-0.3-0.7-0.7-1.2-1-1.9
			c-0.7-1.9-0.2-3.5,1.2-4.9c1.4-1.4,3-1.7,4.9-1.2c1.9,0.5,2.9,1.9,3.2,3.7c0,0.2,0,0.2,0,0.3C70.7,34.6,70.7,34.9,70.7,35.3z"/>
		<path class="st0" d="M28,53.7c11.7,0,23.3,0,35,0c0,0.2,0,0.2,0,0.3c0,1,0,2,0,3c0,1-0.7,1.5-1.5,1.5c-10.6,0-21.3,0-31.9,0
			c-1,0-1.5-0.5-1.5-1.5C28,55.9,28,54.7,28,53.7z"/>
	</g>
</g>
</svg>
