<?xml version="1.0" encoding="utf-8"?>
<!-- Generator: Adobe Illustrator 25.0.1, SVG Export Plug-In . SVG Version: 6.00 Build 0)  -->
<svg version="1.1" id="圖層_1" xmlns="http://www.w3.org/2000/svg" xmlns:xlink="http://www.w3.org/1999/xlink" x="0px" y="0px"
	 viewBox="0 0 26.8 26.9" style="enable-background:new 0 0 26.8 26.9;" xml:space="preserve">
<style type="text/css">
	.st0{fill:#FFFFFF;}
</style>
<g>
	<path class="st0" d="M23.3,22.1H9.8v-11c0,0-0.2-2,1.5-2c0.4,0,1.1,0,2,0v1.2c0,0.5,0.4,0.9,0.9,0.9h1.1v0.5c0,0.3,0.3,0.6,0.6,0.6
		h0.6c0.3,0,0.6-0.3,0.6-0.6v-0.5h1.1c0.5,0,0.9-0.4,0.9-0.9V9.2c1.2,0,2.1,0,2.1,0s1.6,0.1,1.6-1.8c0-1.9,0-3,0-3s0.2-2.1-2.3-2.1
		l-15.9,0c0,0-3-0.1-3,2.9c0,1.1,0,17,0,17v3h21.5c0.8,0,1.4-0.6,1.4-1.4v-0.2C24.7,22.8,24.1,22.1,23.3,22.1z M16.9,11.9
		c0,0.2-0.1,0.3-0.3,0.3H16c-0.2,0-0.3-0.1-0.3-0.3v-0.5h1.2V11.9z M18.9,10.4c0,0.3-0.3,0.6-0.6,0.6h-1.1h-1.9h-1.1
		c-0.3,0-0.6-0.3-0.6-0.6v-1h5.2V10.4z M5.7,4.8C7,4.8,8,5.8,8,7.1S7,9.4,5.7,9.4s-2.3-1-2.3-2.3S4.4,4.8,5.7,4.8z M3.6,18.2h3.9
		c0.2,0,0.4,0.2,0.4,0.4c0,0.2-0.2,0.4-0.4,0.4H3.6c-0.2,0-0.4-0.2-0.4-0.4C3.2,18.4,3.4,18.2,3.6,18.2z M3.6,19.7h2
		c0.2,0,0.4,0.2,0.4,0.4s-0.2,0.4-0.4,0.4h-2c-0.2,0-0.4-0.2-0.4-0.4S3.4,19.7,3.6,19.7z"/>
	<path class="st0" d="M19.6,17.9c0,0,1.9,0,1.9-2.2c0-0.5-0.1-0.8-0.4-1.1c-0.3-0.2-0.7-0.3-1-0.3c0-0.1,0-0.2,0-0.2
		c0-0.1-0.1-0.2-0.2-0.2h-6.9c-0.1,0-0.2,0.1-0.2,0.2c0,0.1-0.4,3,1,4.6c0.6,0.7,1.4,1.1,2.4,1.1c0,0,0.1,0,0.1,0c0,0,0.1,0,0.1,0
		c0,0,0,0,0,0c1.1-0.1,1.9-0.4,2.5-1.1C19.2,18.5,19.4,18.1,19.6,17.9L19.6,17.9z M20.8,14.9c0.2,0.2,0.3,0.4,0.3,0.8
		c0,1.5-1,1.8-1.4,1.8c0.4-1,0.4-2.1,0.3-2.8C20.2,14.7,20.5,14.7,20.8,14.9z"/>
	<path class="st0" d="M13.6,20.8c-0.1,0-0.2,0.1-0.2,0.2c0,0.1,0.1,0.2,0.2,0.2H19c0.1,0,0.2-0.1,0.2-0.2c0-0.1-0.1-0.2-0.2-0.2
		H13.6z"/>
	<circle class="st0" cx="5.7" cy="7.1" r="1.6"/>
</g>
</svg>
