<?xml version="1.0" encoding="utf-8"?>
<!-- Generator: Adobe Illustrator 25.0.1, SVG Export Plug-In . SVG Version: 6.00 Build 0)  -->
<svg version="1.1" id="圖層_1" xmlns="http://www.w3.org/2000/svg" xmlns:xlink="http://www.w3.org/1999/xlink" x="0px" y="0px"
	 viewBox="0 0 26.8 26.9" style="enable-background:new 0 0 26.8 26.9;" xml:space="preserve">
<style type="text/css">
	.st0{fill:#FFFFFF;}
</style>
<g>
	<path class="st0" d="M26.1,7.9h-1.3c0,0,0,0,0,0l0-0.7c0,0,0.2-2.9-2.1-3.1V2.8c0-0.4-0.3-0.7-0.7-0.7h-0.4c0,0,0.1-0.1,0.1-0.1
		V1.3c0-0.1-0.1-0.2-0.2-0.2s-0.2,0.1-0.2,0.2V2c0,0,0,0.1,0.1,0.1h-0.6c-0.4,0-0.7,0.3-0.7,0.7v1.3c-0.2,0-0.4,0-0.6,0V2.8
		c0-0.4-0.3-0.7-0.7-0.7h-0.4c0,0,0.1-0.1,0.1-0.1V1.3c0-0.1-0.1-0.2-0.2-0.2c-0.1,0-0.2,0.1-0.2,0.2V2c0,0,0,0.1,0.1,0.1h-0.6
		c-0.4,0-0.7,0.3-0.7,0.7v1.3c-3.2,0-7,0-9.6,0v-1c0-0.3-0.2-0.5-0.5-0.5H5.9c-0.3,0-0.5,0.2-0.5,0.5v1c-0.8,0-1.2,0-1.2,0
		S1.2,4,1.9,8c0.8,4,1.8,8.1,2.7,8.1c0.1,0,0.2,0,0.3,0l0,0.1c0,0.2,0.1,0.4,0.2,0.5c0.1,0.1,0.3,0.2,0.5,0.2l0.6,0l0,1.7
		c0,0.1,0.1,0.2,0.2,0.2c0,0,0,0,0,0c0.1,0,0.2-0.1,0.2-0.2l0-1.7l0.6,0c0,0,0,0,0,0c0.4,0,0.7-0.3,0.7-0.7l0-0.1c0,0,0,0,0,0
		c0.2,0,0.3,0,0.3,0s0.7,0,0.7-1.8c0-2.1,0-2.6,0-2.6s-0.1-1.5,1.7-1.5c1.8,0,5.9,0,5.9,0s1.1,0,1.1,1.3c0,1-0.1,6.1-0.2,8.9
		c0,0,0,0,0,0c0,0,0,0,0,0l-16,0c0,0-0.6,0-1,0.4c-0.2,0.2-0.3,0.4-0.3,0.6c0,0.9,0.8,1.1,1.2,1.1l0,3.4L24.8,26l0-9.7c0,0,0,0,0,0
		h1.3c0.4,0,0.7-0.3,0.7-0.7v-7C26.8,8.2,26.5,7.9,26.1,7.9z M17.3,2.8c0-0.2,0.1-0.3,0.3-0.3h1.3c0.2,0,0.3,0.1,0.3,0.3v1.1h-1.9
		V2.8z M5.8,3.1c0-0.1,0.1-0.1,0.1-0.1h0.9C6.9,2.9,7,3,7,3.1v0.9H5.8V3.1z M7.1,16.6C7.1,16.6,7.1,16.6,7.1,16.6l-0.8,0h0
		c0,0,0,0,0,0l-0.8,0c-0.1,0-0.2,0-0.2-0.1c-0.1-0.1-0.1-0.1-0.1-0.2l2.2,0C7.4,16.5,7.3,16.6,7.1,16.6z M23.6,8.7
		c0,1.4-1.1,2.6-2.5,2.6c0,0,0,0,0,0c-0.7,0-1.3-0.3-1.7-0.7c-0.5-0.5-0.8-1.1-0.7-1.8c0-1.4,1.1-2.6,2.5-2.6c0.7,0,1.3,0.3,1.7,0.7
		C23.4,7.4,23.6,8,23.6,8.7z M20.5,2.8c0-0.2,0.1-0.3,0.3-0.3h1.3c0.2,0,0.3,0.1,0.3,0.3v1.1h-1.9V2.8z M1.5,22.3
		c0-0.1-0.1-0.2-0.2-0.2c0,0-0.9,0-0.9-0.8c0-0.3,0.1-0.4,0.4-0.5c0.2-0.1,0.5-0.1,0.5-0.1l16,0l0,1.5c0,0,0,0.1,0,0.1c0,0,0,0,0,0
		H1.5z M23.4,19.4c-0.2,0.2-0.4,0.3-0.7,0.3c0,0,0,0,0,0l-3.2,0c-0.2,0-0.5-0.1-0.6-0.3c-0.2-0.2-0.3-0.4-0.3-0.7
		c0-0.5,0.4-0.9,0.9-0.9c0,0,0,0,0,0l3.2,0c0.5,0,0.9,0.4,0.9,1C23.7,19,23.6,19.2,23.4,19.4z M26.4,15.6c0,0.2-0.1,0.3-0.3,0.3H25
		V8.3h1.1c0.2,0,0.3,0.1,0.3,0.3V15.6z"/>
	<path class="st0" d="M19.4,8.7c0,0.5,0.2,1,0.5,1.3c0.3,0.3,0.8,0.5,1.2,0.5c0,0,0,0,0,0c1,0,1.8-0.8,1.8-1.9c0-0.5-0.2-1-0.5-1.3
		c-0.3-0.3-0.8-0.5-1.2-0.5C20.2,6.9,19.4,7.7,19.4,8.7z"/>
	<path class="st0" d="M22.7,18.5l-3.2,0c0,0,0,0,0,0c-0.1,0-0.2,0.1-0.2,0.2c0,0.1,0,0.1,0.1,0.2c0,0,0.1,0.1,0.1,0.1l3.2,0
		c0,0,0,0,0,0c0.1,0,0.1,0,0.1-0.1c0,0,0.1-0.1,0.1-0.2C23,18.6,22.9,18.5,22.7,18.5z"/>
</g>
</svg>
