<?xml version="1.0" encoding="utf-8"?>
<!-- Generator: Adobe Illustrator 25.0.1, SVG Export Plug-In . SVG Version: 6.00 Build 0)  -->
<svg version="1.1" id="圖層_1" xmlns="http://www.w3.org/2000/svg" xmlns:xlink="http://www.w3.org/1999/xlink" x="0px" y="0px"
	 viewBox="0 0 230 255" style="enable-background:new 0 0 230 255;" xml:space="preserve">
<style type="text/css">
	.st0{opacity:0.75;}
	.st1{fill:url(#SVGID_1_);}
	.st2{opacity:0.5;clip-path:url(#SVGID_3_);fill:#CAB9F6;}
	.st3{fill:none;stroke:#CAB9F6;stroke-miterlimit:10;}
	.st4{fill:#9F93F3;}
	.st5{fill:none;stroke:#827CED;stroke-linecap:round;stroke-miterlimit:10;}
	.st6{fill:#CAB9F6;}
	.st7{fill:#827CED;}
	.st8{fill:none;stroke:#EBD8F8;stroke-width:0.75;stroke-linecap:round;stroke-miterlimit:10;}
	.st9{fill:none;stroke:#EBD8F8;stroke-width:0.75;stroke-linecap:round;stroke-miterlimit:10;stroke-dasharray:4.7689,4.7689;}
	.st10{fill:none;stroke:#EBD8F8;stroke-width:0.75;stroke-linecap:round;stroke-miterlimit:10;stroke-dasharray:5.1333,5.1333;}
</style>
<g class="st0">
	<g>
		<linearGradient id="SVGID_1_" gradientUnits="userSpaceOnUse" x1="113.1925" y1="2.073" x2="113.1925" y2="253.8063">
			<stop  offset="0" style="stop-color:#EBD8F8"/>
			<stop  offset="1" style="stop-color:#EBD8F8;stop-opacity:0"/>
		</linearGradient>
		<path class="st1" d="M199.2,89.2c0-2.8-0.7-5.1-1.5-6.7c-0.7-1.5-1.6-2.6-2.5-3.5c-0.1-0.1-0.2-0.2-0.2-0.2c0,0,0,0,0,0
			c-0.1-0.1-0.2-0.2-0.2-0.2c-0.2-5.7-4.4-6.2-4.4-6.2l-12.9,3.1l-58.9-6.9l6.6-20.4c0.7-2.9,1-5.9,1-9C126.3,17.6,108.7,0,87,0
			C65.4,0,47.8,17.6,47.8,39.3c0,5.4,1.1,10.6,3.1,15.3L54,66.5l-4.7,5.8c-18,10.5-24.3,11.1-21.5,31.2c3.7,27.2,8.2,50.9,8.2,50.9
			s1.6,6.9,4.9,9.4l0,0c0,0,0,7.2,0,10c0,4.3,0.1,8.3,0.2,12.2l-0.2-0.2c0,0,0,12.8,2.2,31.6c0,0-0.3,17.3,13.4,17.3l0.1,0
			c0.3,5.5,1.2,12,3,19.9h32c1.4-10,3-22.7,3.8-29.2l0.5-0.1c0.5,0.2,6.9,2.2,22.5,0c0,0,10.6,2.1,26.3,1.1c0,0-2.1,6.2,0.3,20.1
			l1.7,8.4h21.5l7.9-27.6c5.7-20.8-7.6-24.5-7.6-24.5c-15.3-7-34.4-8-34.4-8v-9.2l-0.1-42.7c-0.9-27.6-3.7-43.3-3.7-43.3
			s2.9,7.2,7.9,16.2c16.5,29.3,42,22.9,42,22.9c15.9-9.2,18.5-37.6,19-46.7C199.2,91.2,199.2,90.3,199.2,89.2z"/>
		<g>
			<defs>
				<path id="SVGID_2_" d="M199.2,89.2c0-2.8-0.7-5.1-1.5-6.7c-0.7-1.5-1.6-2.6-2.5-3.5c-0.1-0.1-0.2-0.2-0.2-0.2c0,0,0,0,0,0
					c-0.1-0.1-0.2-0.2-0.2-0.2c-0.2-5.7-4.4-6.2-4.4-6.2l-12.9,3.1l-58.9-6.9l6.6-20.4c0.7-2.9,1-5.9,1-9C126.3,17.6,108.7,0,87,0
					C65.4,0,47.8,17.6,47.8,39.3c0,5.4,1.1,10.6,3.1,15.3L54,66.5l-4.7,5.8c-18,10.5-24.3,11.1-21.5,31.2
					c3.7,27.2,8.2,50.9,8.2,50.9s1.6,6.9,4.9,9.4l0,0c0,0,0,7.2,0,10c0,4.3,0.1,8.3,0.2,12.2l-0.2-0.2c0,0,0,12.8,2.2,31.6
					c0,0-0.3,17.3,13.4,17.3l0.1,0c0.3,5.5,1.2,12,3,19.9h32c1.4-10,3-22.7,3.8-29.2l0.5-0.1c0.5,0.2,6.9,2.2,22.5,0
					c0,0,10.6,2.1,26.3,1.1c0,0-2.1,6.2,0.3,20.1l1.7,8.4h21.5l7.9-27.6c5.7-20.8-7.6-24.5-7.6-24.5c-15.3-7-34.4-8-34.4-8v-9.2
					l-0.1-42.7c-0.9-27.6-3.7-43.3-3.7-43.3s2.9,7.2,7.9,16.2c16.5,29.3,42,22.9,42,22.9c15.9-9.2,18.5-37.6,19-46.7
					C199.2,91.2,199.2,90.3,199.2,89.2z"/>
			</defs>
			<clipPath id="SVGID_3_">
				<use xlink:href="#SVGID_2_"  style="overflow:visible;"/>
			</clipPath>
			<path class="st2" d="M199.1,87.1c0,0,3,27-166,52L10.7,255l11.4,22.8h183.7L199.1,87.1z"/>
		</g>
		<g>
			<path class="st3" d="M91.6,254.6c2-14,4.3-33.4,4.3-33.4s3.4-19.1-25.4-19.7"/>
			<path class="st3" d="M66.1,208.2c0,0-10.7,3.3-9.5,26.5c0.3,5.5,1.2,12,3,19.9"/>
			<path class="st3" d="M190.4,76.6c0,0,8.3,0.7,8.8,12.6c0.5,11.9-8.5,11.3-8.5,11.3"/>
			<path class="st3" d="M50.1,143c0,0-3.1-8.5,10.1-8.5c10.6,0,12,8.5,12,8.5"/>
			<path class="st3" d="M70.9,139.9c0,0,4.9-2.3,7.1,3.1"/>
			<path class="st3" d="M57.7,106.1c0,0,1.1,15.5,2.5,28.4"/>
			<path class="st3" d="M194.8,78.6c0,0,0.2-6.1-5-6"/>
		</g>
		<g>
			<g>
				<path class="st4" d="M179.1,72h9.4c0.9,0,1.6,0.6,1.6,1.4v42.7c0,0.8-0.7,1.4-1.6,1.4h-9.4"/>
				<path class="st5" d="M179.1,72h9.4c0.9,0,1.6,0.6,1.6,1.4v42.7c0,0.8-0.7,1.4-1.6,1.4h-9.4"/>
				<line class="st5" x1="179.1" y1="117.6" x2="179.1" y2="72"/>
			</g>
			<g>
				<path class="st4" d="M82.1,116.6l0,0.8c0,1.7-1.3,3-2.9,3l-8.8,0c-1.6,0-2.9-1.4-2.8-3.1l0-0.8"/>
				<line class="st4" x1="74.7" y1="120.5" x2="74.6" y2="131.3"/>
				<path class="st5" d="M82.1,116.6l0,0.8c0,1.7-1.3,3-2.9,3l-8.8,0c-1.6,0-2.9-1.4-2.8-3.1l0-0.8"/>
				<line class="st5" x1="67.5" y1="116.6" x2="82.1" y2="116.6"/>
				<line class="st5" x1="74.7" y1="120.5" x2="74.6" y2="131.3"/>
			</g>
			<path class="st4" d="M70.3,50.1v-4.1c0-0.5,0.4-0.9,0.9-0.9h7.2c0.5,0,0.9,0.4,0.9,0.9v4.1"/>
			<path class="st5" d="M70.3,50.1v-4.6c0-0.5,0.4-0.9,0.9-0.9h7.2c0.5,0,0.9,0.4,0.9,0.9v4.6"/>
			<line class="st5" x1="79.3" y1="50.1" x2="70.3" y2="50.1"/>
			<g>
				<path class="st4" d="M136.1,50.1v-8.8c0-0.8,0.6-1.4,1.4-1.4h10.1c0.8,0,1.4,0.6,1.4,1.4v8.8"/>
				<path class="st4" d="M154.3,50.1v-8.8c0-0.8,0.6-1.4,1.4-1.4h10.1c0.8,0,1.4,0.6,1.4,1.4v8.8"/>
				<line class="st4" x1="143.1" y1="34.1" x2="143.1" y2="38.2"/>
				<line class="st4" x1="161.3" y1="34.1" x2="161.3" y2="38.2"/>
				<path class="st5" d="M149,41.4v8.8h-12.9v-8.8c0-0.8,0.6-1.4,1.4-1.4h10.1C148.4,39.9,149,40.6,149,41.4z"/>
				<path class="st5" d="M167.2,41.4v8.8h-12.9v-8.8c0-0.8,0.6-1.4,1.4-1.4h10.1C166.6,39.9,167.2,40.6,167.2,41.4z"/>
				<line class="st5" x1="143.1" y1="35.1" x2="143.1" y2="39.2"/>
				<line class="st5" x1="161.3" y1="35.1" x2="161.3" y2="39.2"/>
			</g>
			<path class="st6" d="M227.2,185.7H2.8c-1.5,0-2.8-1.2-2.8-2.8v-6.5c0-1.5,1.2-2.8,2.8-2.8h224.5c1.5,0,2.8,1.2,2.8,2.8v6.5
				C230,184.5,228.8,185.7,227.2,185.7z"/>
			<g>
				<rect x="26.3" y="185.7" class="st6" width="8.6" height="69.2"/>
				<rect x="195" y="185.7" class="st6" width="8.6" height="69.2"/>
			</g>
			<g>
				<line class="st4" x1="149" y1="49.1" x2="136.1" y2="49.1"/>
				<line class="st4" x1="167.2" y1="49.1" x2="154.3" y2="49.1"/>
				<g>
					<g>
						<path class="st4" d="M62.5,49.1c0,0-17.3-0.6-12.9,22.3c4.4,23.1,10.4,46.1,15.2,46.1c4.8,0,20.2,0.1,20.2,0.1s3.7,0,3.7-10.5
							C88.7,95,88.9,92,88.9,92s-0.5-8.7,9.5-8.7c10.1,0,33.6,0,33.6,0s6.3-0.2,6.3,7.4c0,7.7-0.3,52.5-0.3,52.5l-93.9-0.1
							c0,0-4.1,0.1-4.1,4.3c-0.1,4.2,6,4.4,6,4.4l-0.1,21.7h133.9L180,66.7c0,0,1.1-17.7-12.6-17.7C155.4,49.1,62.5,49.1,62.5,49.1z
							"/>
						<line class="st4" x1="46" y1="151.9" x2="179.8" y2="152.5"/>
						<line class="st4" x1="138" y1="143.2" x2="137.9" y2="152.3"/>
						<line class="st4" x1="67.5" y1="117.6" x2="82.1" y2="117.6"/>
						<path class="st4" d="M171,73.8c0,7-5.5,12.7-12.3,12.7c-6.8,0-12.2-5.7-12.2-12.7c0-7,5.5-12.6,12.3-12.6
							C165.6,61.2,171,66.8,171,73.8z"/>
						<path class="st4" d="M167.6,132.6l-18.2-0.1c-1.8,0-3.2-1.5-3.2-3.4l0,0c0-1.9,1.5-3.4,3.2-3.4l18.1,0.1
							c1.8,0,3.2,1.5,3.2,3.4v0C170.8,131.1,169.4,132.6,167.6,132.6z"/>
					</g>
				</g>
				<line class="st4" x1="180" y1="117.6" x2="180" y2="72"/>
				<line class="st4" x1="79.3" y1="49.1" x2="70.3" y2="49.1"/>
			</g>
			<g>
				<circle class="st7" cx="158.6" cy="73.6" r="12.5"/>
				<g>
					<g>
						<path class="st7" d="M167.6,132.6l-18.2-0.1c-1.8,0-3.2-1.5-3.2-3.4l0,0c0-1.9,1.5-3.4,3.2-3.4l18.1,0.1
							c1.8,0,3.2,1.5,3.2,3.4v0C170.8,131.1,169.4,132.6,167.6,132.6z"/>
						<line class="st5" x1="47" y1="151.9" x2="178.8" y2="152.5"/>
						<line class="st5" x1="138" y1="144.2" x2="137.9" y2="152.3"/>
						<path class="st5" d="M82.1,117.6"/>
						<path class="st5" d="M67.5,117.6"/>
					</g>
				</g>
				<path class="st5" d="M180,72"/>
				<path class="st5" d="M180,117.6"/>
				<path class="st5" d="M70.3,49.1"/>
				<path class="st5" d="M79.3,49.1"/>
			</g>
		</g>
	</g>
	<g>
		<path class="st7" d="M62.1,143.1h69.4c0,0,6.6,29-14.4,49C117.1,192.1,86.1,153.1,62.1,143.1z"/>
		<g>
			<g>
				<path class="st8" d="M74.5,143c0,0,0.7,0.5,2,1.4"/>
				<path class="st9" d="M80.4,147.2c8,6,22.7,17.7,33.3,30.6"/>
				<path class="st8" d="M115.1,179.7c0.5,0.7,1,1.3,1.5,2c0,0,0.6-0.7,1.5-2"/>
				<path class="st10" d="M120.8,175.4c3.2-5.9,6.9-15.5,5.8-27.2"/>
				<path class="st8" d="M126.3,145.6c-0.1-0.8-0.3-1.6-0.5-2.5"/>
			</g>
		</g>
	</g>
</g>
</svg>
