<?xml version="1.0" encoding="utf-8"?>
<!-- Generator: Adobe Illustrator 25.0.1, SVG Export Plug-In . SVG Version: 6.00 Build 0)  -->
<svg version="1.1" id="圖層_1" xmlns="http://www.w3.org/2000/svg" xmlns:xlink="http://www.w3.org/1999/xlink" x="100px" y="100px"
	 viewBox="0 0 26.8 26.9" style="enable-background:new 0 0 26.8 26.9;" xml:space="preserve">
<style type="text/css">
	.st0{fill:#231815;}
</style>
<g>
	<path class="st0" d="M17.9,12.2c1,1,1,2.5,0,3.5l-4,4c-2.2,2.2-5.4,2.9-8.2,2c-1.2-0.4-2.4-1-3.3-2c-3.2-3.2-3.2-8.5,0-11.7L8,2.4
		c3.2-3.2,8.3-3.2,11.5-0.1c-2.2-2.1-5.8-2.1-8,0.1L9.9,4c0,0-0.1,0.1-0.1,0.1c0,0-0.1,0.1-0.1,0.1L8.2,5.7L5.6,8.3L4.1,9.8
		c-2.2,2.2-2.2,5.9,0,8.1c0.5,0.5,1.1,0.9,1.7,1.2c2.1,1,4.7,0.6,6.4-1.2L17.9,12.2z"/>
	<path class="st0" d="M8.9,14.8c-1-1-1-2.5,0-3.5l4-4c2.2-2.2,5.4-2.9,8.2-2c1.2,0.4,2.4,1,3.3,2c3.2,3.2,3.1,8.5,0,11.7l-5.6,5.6
		c-3.2,3.2-8.3,3.2-11.5,0.1c2.2,2.1,5.8,2.1,8-0.1c0,0,0.1-0.1,0.1-0.1l7.2-7.2C24.9,15,25,11.2,22.7,9c-0.5-0.5-1.1-0.9-1.7-1.1
		c-2.1-1-4.7-0.6-6.4,1.2L8.9,14.8z"/>
</g>
</svg>
