<?xml version="1.0" encoding="utf-8"?>
<!-- Generator: Adobe Illustrator 25.0.1, SVG Export Plug-In . SVG Version: 6.00 Build 0)  -->
<svg version="1.1" id="圖層_1" xmlns="http://www.w3.org/2000/svg" xmlns:xlink="http://www.w3.org/1999/xlink" x="0px" y="0px"
	 viewBox="0 0 73.3 65.6" style="enable-background:new 0 0 73.3 65.6;" xml:space="preserve">
<style type="text/css">
	.st0{fill:#C9615A;}
</style>
<g>
	<g>
		<g>
			<path class="st0" d="M62.6,42.8l-9,0c0,0,0,0,0,0c-0.6,0-1.1,0.5-1.1,1.2c0,0.3,0.1,0.6,0.3,0.9c0.2,0.2,0.5,0.3,0.7,0.3l9,0
				c0,0,0,0,0,0c0.3,0,0.6-0.1,0.8-0.3c0.2-0.2,0.3-0.5,0.3-0.8C63.7,43.3,63.2,42.8,62.6,42.8z"/>
			<path class="st0" d="M13.8,38.7c0,0.2,0.1,0.5,0.3,0.6c0.2,0.2,0.4,0.3,0.6,0.3l2.2,0c0,0,0,0,0,0h0l2.2,0c0,0,0,0,0,0
				c0.5,0,0.9-0.4,0.9-0.9l-4.1,0L13.8,38.7z"/>
			<polygon class="st0" points="47.9,55.8 47.9,55.8 47.9,55.8 3,55.6 2.9,65.2 68.1,65.6 68.2,55.9 47.9,55.8 			"/>
			<path class="st0" d="M47.5,51.4L1.3,51.2C1.2,51.2,0,51.4,0,53c0,1.5,2.4,1.7,2.5,1.7l44.9,0.2L47.5,51.4z"/>
			<path class="st0" d="M61.9,0.9C61.9,0.4,61.5,0,61,0h-3.5c-0.5,0-0.9,0.4-0.9,0.9V4l5.4,0V0.9z"/>
			<path class="st0" d="M52.9,0.9C52.9,0.4,52.5,0,52,0h-3.5c-0.5,0-0.9,0.4-0.9,0.9V4l5.4,0V0.9z"/>
			<path class="st0" d="M18.5,1.6c0-0.2-0.2-0.4-0.4-0.4h-2.6c-0.2,0-0.4,0.2-0.4,0.4V4l3.4,0V1.6z"/>
			<path class="st0" d="M62.6,5c0,0-0.1,0-0.2,0H56c-0.1,0-0.1,0-0.2,0l-2.3,0c-0.1,0-0.1,0-0.2,0H47c0,0-0.1,0-0.1,0L19,5
				c0,0,0,0-0.1,0h-4.4c0,0,0,0,0,0l-3.8,0c0,0,0,0-0.1,0c-0.3,0-2.9,0.1-4.6,2C4.4,8.8,4,11.7,4.8,15.4c3.2,16.5,5.8,22.3,7,22.3
				l1.3,0c0,0,0,0,0,0c0,0,0,0,0,0l7.2,0c0,0,0,0,0,0l1.5,0c0.4,0,1.3-1,1.3-4.7c0-5.9,0.1-7.4,0.1-7.5c0,0-0.1-1.9,1.2-3.3
				c0.9-1,2.3-1.5,4-1.5c0,0,0,0,0,0l16.6,0c0,0,1.4,0,2.5,1c0.8,0.7,1.1,1.8,1.1,3.2l-0.2,25.8l0,4l19.7,0.1l0.1-41.8
				c0-0.1,0.2-4.4-2-6.7C65.4,5.5,64.1,5,62.6,5z M64.1,45.5c-0.4,0.4-0.9,0.6-1.5,0.6c0,0,0,0,0,0c0,0,0,0,0,0l-9,0
				c-0.5,0-1.1-0.2-1.4-0.6c-0.4-0.4-0.6-1-0.6-1.6c0-1.2,0.9-2.2,2.1-2.2c0,0,0,0,0,0l9,0c1.2,0,2.1,1,2.1,2.2
				C64.7,44.5,64.5,45.1,64.1,45.5z M58.2,23.4C58.2,23.4,58.2,23.4,58.2,23.4c-1.7,0-3.3-0.7-4.6-1.9c-1.3-1.3-2-3-2-4.8
				c0-3.7,3-6.7,6.6-6.7c1.7,0,3.3,0.7,4.6,1.9c1.3,1.3,2,3,2,4.8C64.8,20.4,61.8,23.4,58.2,23.4z"/>
			<path class="st0" d="M72.3,16.3h-3.1v21.5h3.1c0.5,0,0.9-0.4,0.9-0.9V17.2C73.3,16.7,72.8,16.3,72.3,16.3z"/>
			<path class="st0" d="M58.3,11c-3.1,0-5.6,2.6-5.6,5.7c0,1.6,0.6,3,1.7,4.1c1,1,2.4,1.6,3.8,1.6c0,0,0,0,0,0
				c3.1,0,5.6-2.6,5.6-5.7c0-1.6-0.6-3-1.7-4.1C61.1,11.5,59.7,11,58.3,11z"/>
			<path class="st0" d="M16.9,45.5L16.9,45.5c-0.3,0-0.5-0.2-0.5-0.5v-4c0-0.3,0.2-0.5,0.5-0.5l0,0c0.3,0,0.5,0.2,0.5,0.5v4
				C17.4,45.3,17.2,45.5,16.9,45.5z"/>
		</g>
	</g>
</g>
</svg>
