<?xml version="1.0" encoding="utf-8"?>
<!-- Generator: Adobe Illustrator 25.0.1, SVG Export Plug-In . SVG Version: 6.00 Build 0)  -->
<svg version="1.1" id="圖層_1" xmlns="http://www.w3.org/2000/svg" xmlns:xlink="http://www.w3.org/1999/xlink" x="0px" y="0px"
	 viewBox="0 0 163.5 84.8" style="enable-background:new 0 0 163.5 84.8;" xml:space="preserve">
<style type="text/css">
	.st0{fill:#FFFFFF;}
</style>
<g>
	<path class="st0" d="M24,41.3c0.8,0.8,0.8,2.1,0,2.9l-3.3,3.3c-1.9,1.9-4.5,2.4-6.9,1.7c-1-0.3-2-0.9-2.8-1.7
		c-2.7-2.7-2.6-7.1,0-9.8l4.7-4.7c2.6-2.6,6.9-2.7,9.6-0.1c-1.9-1.8-4.9-1.8-6.7,0.1l-1.4,1.3c0,0-0.1,0.1-0.1,0.1
		c0,0-0.1,0.1-0.1,0.1l-1.2,1.2L13.7,38l-1.3,1.3c-1.9,1.9-1.9,4.9,0,6.8c0.4,0.4,0.9,0.7,1.4,1c1.8,0.8,3.9,0.5,5.4-1L24,41.3z"/>
	<path class="st0" d="M16.5,43.5c-0.8-0.8-0.8-2.1,0-2.9l3.3-3.3c1.9-1.9,4.5-2.4,6.9-1.7c1,0.3,2,0.9,2.8,1.7
		c2.7,2.7,2.6,7.1,0,9.8l-4.7,4.7c-2.6,2.6-6.9,2.7-9.6,0.1c1.9,1.8,4.9,1.8,6.7-0.1c0,0,0.1-0.1,0.1-0.1l6-6c1.9-1.9,1.9-5,0-6.8
		c-0.4-0.4-0.9-0.7-1.4-1c-1.8-0.8-3.9-0.5-5.4,1L16.5,43.5z"/>
	<path class="st0" d="M38.6,44c0.2,0,0.3,0.1,0.4,0.2c0.2,0.8,0.9,1.3,2.6,1.3c1.7,0,2.5-0.6,2.5-1.3c0-0.4-0.4-0.8-1.4-0.9
		l-2.8-0.2c-2.2-0.2-3.3-1-3.3-2.5c0-1.7,1.6-3.2,4.7-3.2c3.2,0,4.6,1.3,4.6,2.9c0,0.1-0.1,0.3-0.3,0.3h-1.7c-0.2,0-0.3,0-0.3-0.2
		c-0.1-0.6-0.7-1.1-2.3-1.1c-1.5,0-2.3,0.5-2.3,1.2c0,0.4,0.3,0.7,1.3,0.8l2.7,0.2c2.5,0.2,3.4,1.3,3.4,2.6c0,1.5-1.4,3.2-4.8,3.2
		c-3.2,0-5-1.4-5-3v-0.1c0-0.2,0.1-0.3,0.3-0.3H38.6z"/>
	<path class="st0" d="M59.7,47c0,0.1-0.1,0.2-0.2,0.2h-2c-0.1,0-0.2-0.1-0.2-0.2v-3.4h-6.1V47c0,0.1-0.1,0.2-0.2,0.2h-2
		c-0.1,0-0.2-0.1-0.2-0.2v-9.1c0-0.1,0.1-0.2,0.2-0.2h2c0.1,0,0.2,0.1,0.2,0.2v4h6.1v-4c0-0.1,0.1-0.2,0.2-0.2h2
		c0.1,0,0.2,0.1,0.2,0.2V47z"/>
	<path class="st0" d="M73.7,42.4c0,3-2.7,4.9-5.8,4.9c-3.2,0-5.8-1.9-5.8-4.9c0-2.9,2.7-4.9,5.8-4.9C71.1,37.5,73.7,39.5,73.7,42.4
		 M64.5,42.4c0,1.9,1.6,3.1,3.4,3.1c1.9,0,3.4-1.2,3.4-3.1c0-1.9-1.6-3.1-3.4-3.1C66,39.3,64.5,40.5,64.5,42.4"/>
	<path class="st0" d="M78.5,43.2v2.2h6.2c0.1,0,0.2,0.1,0.2,0.2v1.4c0,0.1-0.1,0.2-0.2,0.2h-8.4c-0.1,0-0.2-0.1-0.2-0.2v-9.1
		c0-0.1,0.1-0.2,0.2-0.2h8.3c0.1,0,0.2,0.1,0.2,0.2v1.4c0,0.1-0.1,0.2-0.2,0.2h-6.1v1.9h5.6c0.1,0,0.2,0.1,0.2,0.2V43
		c0,0.1-0.1,0.2-0.2,0.2H78.5z"/>
	<path class="st0" d="M89.7,44c0.2,0,0.3,0.1,0.4,0.2c0.2,0.8,0.9,1.3,2.6,1.3c1.7,0,2.5-0.6,2.5-1.3c0-0.4-0.4-0.8-1.4-0.9
		l-2.8-0.2c-2.2-0.2-3.3-1-3.3-2.5c0-1.7,1.6-3.2,4.7-3.2c3.2,0,4.6,1.3,4.6,2.9c0,0.1-0.1,0.3-0.3,0.3h-1.7c-0.2,0-0.3,0-0.3-0.2
		c-0.1-0.6-0.7-1.1-2.3-1.1c-1.5,0-2.3,0.5-2.3,1.2c0,0.4,0.3,0.7,1.3,0.8l2.7,0.2c2.5,0.2,3.4,1.3,3.4,2.6c0,1.5-1.4,3.2-4.8,3.2
		c-3.2,0-5-1.4-5-3v-0.1c0-0.2,0.1-0.3,0.3-0.3H89.7z"/>
	<path class="st0" d="M108.2,41.5c-0.2,0-0.3-0.1-0.3-0.3c-0.2-1.1-1.3-1.9-2.9-1.9c-1.8,0-3.3,1.3-3.3,3.1c0,1.8,1.4,3.1,3.3,3.1
		c1.6,0,2.7-0.7,2.9-1.8c0-0.2,0.1-0.3,0.3-0.3h1.8c0.1,0,0.3,0.1,0.3,0.2c0,2-2.1,3.6-5.3,3.6c-3.2,0-5.7-2-5.7-4.9
		c0-2.9,2.5-4.9,5.7-4.9c3.3,0,5.3,1.9,5.3,3.8c0,0.1-0.1,0.2-0.3,0.2H108.2z"/>
	<path class="st0" d="M123.6,42.4c0,3-2.7,4.9-5.8,4.9c-3.2,0-5.8-1.9-5.8-4.9c0-2.9,2.7-4.9,5.8-4.9
		C121,37.5,123.6,39.5,123.6,42.4 M114.4,42.4c0,1.9,1.6,3.1,3.4,3.1c1.9,0,3.4-1.2,3.4-3.1c0-1.9-1.6-3.1-3.4-3.1
		C115.9,39.3,114.4,40.5,114.4,42.4"/>
	<path class="st0" d="M135.1,47.2l-5.4-5c-0.6-0.5-1.2-1.2-1.2-1.2h-0.1v6c0,0.1-0.1,0.2-0.2,0.2h-2c-0.1,0-0.2-0.1-0.2-0.2v-9.1
		c0-0.1,0.1-0.2,0.2-0.2h1.6l5.3,4.9c0.6,0.5,1.2,1.3,1.2,1.3h0.1v-6c0-0.1,0.1-0.2,0.2-0.2h2c0.1,0,0.2,0.1,0.2,0.2V47
		c0,0.1-0.1,0.2-0.2,0.2H135.1z"/>
	<path class="st0" d="M149.2,47.2l-5.4-5c-0.6-0.5-1.2-1.2-1.2-1.2h-0.1v6c0,0.1-0.1,0.2-0.2,0.2h-2c-0.1,0-0.2-0.1-0.2-0.2v-9.1
		c0-0.1,0.1-0.2,0.2-0.2h1.6l5.3,4.9c0.6,0.5,1.2,1.3,1.2,1.3h0.1v-6c0-0.1,0.1-0.2,0.2-0.2h2c0.1,0,0.2,0.1,0.2,0.2V47
		c0,0.1-0.1,0.2-0.2,0.2H149.2z"/>
</g>
</svg>
