<?xml version="1.0" encoding="utf-8"?>
<!-- Generator: Adobe Illustrator 25.0.1, SVG Export Plug-In . SVG Version: 6.00 Build 0)  -->
<svg version="1.1" id="圖層_1" xmlns="http://www.w3.org/2000/svg" xmlns:xlink="http://www.w3.org/1999/xlink" x="0px" y="0px"
	 viewBox="0 0 41.6 39.2" style="enable-background:new 0 0 41.6 39.2;" xml:space="preserve">
<style type="text/css">
	.st0{fill:#FFFFFF;stroke:#FFFFFF;stroke-width:2;stroke-linecap:round;stroke-linejoin:round;stroke-miterlimit:10;}
	.st1{fill:#F8AF5E;}
</style>
<g>
	<g>
		<g>
			<path class="st0" d="M20.9,28.8C20.9,28.8,20.8,28.8,20.9,28.8c-0.3,0-0.4,0-0.5-0.1l-11-11.2c-0.1-0.1-0.1-0.2-0.1-0.4
				c0,0,0,0,0,0c0-0.2,0.1-0.3,0.2-0.4l4.4-6.2c0,0,0,0,0,0l0,0l0,0l0,0c0,0,0,0,0,0c0,0,0,0,0,0c0,0,0,0,0,0l0,0c0,0,0,0,0,0
				c0,0,0,0,0,0l0,0c0,0,0,0,0,0l0,0c0.1-0.1,0.2-0.2,0.3-0.2c0,0,0,0,0,0c0,0,0.1,0,0.1,0h6.5c0,0,0.1,0,0.1,0c0,0,0.1,0,0.1,0h6.5
				c0,0,0.1,0,0.1,0c0,0,0,0,0,0c0.1,0,0.2,0.1,0.3,0.2v0c0,0,0,0,0,0c0,0,0,0,0,0l0,0c0,0,0,0,0,0s0,0,0,0c0,0,0,0,0,0l4.4,6.2
				c0.1,0.1,0.2,0.2,0.2,0.4c0,0,0,0,0,0c0,0.1,0,0.3-0.1,0.4l-11,11.2C21.2,28.8,21,28.8,20.9,28.8z M16.2,17.7l4.6,9.8l4.6-9.8
				l-4.7,0L16.2,17.7z M26.5,17.7l-3.9,8.2l8.1-8.3L26.5,17.7z M10.9,17.6l8.1,8.3l-3.9-8.2L10.9,17.6z M16.6,16.7l4.3,0l4.1,0
				l-4.2-5.2L16.6,16.7z M27.7,12.1l-0.8,4.6l4.1,0L27.7,12.1z M10.7,16.7l4.1,0l-0.8-4.6L10.7,16.7z M14.8,11.3l0.9,4.9l4-4.9H14.8
				z M21.9,11.3l4,4.9l0.9-4.9H21.9z"/>
		</g>
		<g>
			<path class="st1" d="M20.9,28.8C20.9,28.8,20.8,28.8,20.9,28.8c-0.3,0-0.4,0-0.5-0.1l-11-11.2c-0.1-0.1-0.1-0.2-0.1-0.4
				c0,0,0,0,0,0c0-0.2,0.1-0.3,0.2-0.4l4.4-6.2c0,0,0,0,0,0l0,0l0,0l0,0c0,0,0,0,0,0c0,0,0,0,0,0c0,0,0,0,0,0l0,0c0,0,0,0,0,0
				c0,0,0,0,0,0l0,0c0,0,0,0,0,0l0,0c0.1-0.1,0.2-0.2,0.3-0.2c0,0,0,0,0,0c0,0,0.1,0,0.1,0h6.5c0,0,0.1,0,0.1,0c0,0,0.1,0,0.1,0h6.5
				c0,0,0.1,0,0.1,0c0,0,0,0,0,0c0.1,0,0.2,0.1,0.3,0.2v0c0,0,0,0,0,0c0,0,0,0,0,0l0,0c0,0,0,0,0,0s0,0,0,0c0,0,0,0,0,0l4.4,6.2
				c0.1,0.1,0.2,0.2,0.2,0.4c0,0,0,0,0,0c0,0.1,0,0.3-0.1,0.4l-11,11.2C21.2,28.8,21,28.8,20.9,28.8z M16.2,17.7l4.6,9.8l4.6-9.8
				l-4.7,0L16.2,17.7z M26.5,17.7l-3.9,8.2l8.1-8.3L26.5,17.7z M10.9,17.6l8.1,8.3l-3.9-8.2L10.9,17.6z M16.6,16.7l4.3,0l4.1,0
				l-4.2-5.2L16.6,16.7z M27.7,12.1l-0.8,4.6l4.1,0L27.7,12.1z M10.7,16.7l4.1,0l-0.8-4.6L10.7,16.7z M14.8,11.3l0.9,4.9l4-4.9H14.8
				z M21.9,11.3l4,4.9l0.9-4.9H21.9z"/>
		</g>
	</g>
</g>
</svg>
