<?xml version="1.0" encoding="utf-8"?>
<!-- Generator: Adobe Illustrator 25.0.1, SVG Export Plug-In . SVG Version: 6.00 Build 0)  -->
<svg version="1.1" id="圖層_1" xmlns="http://www.w3.org/2000/svg" xmlns:xlink="http://www.w3.org/1999/xlink" x="0px" y="0px"
	 viewBox="0 0 22.5 21.2" style="enable-background:new 0 0 22.5 21.2;" xml:space="preserve">
<style type="text/css">
	.st0{fill:#FFFFFF;stroke:#FFFFFF;stroke-width:2;stroke-linecap:round;stroke-linejoin:round;stroke-miterlimit:10;}
	.st1{fill:#BE9D80;}
</style>
<g>
	<g>
		<path class="st0" d="M11.3,17.6C11.3,17.6,11.3,17.6,11.3,17.6c-0.2,0-0.3,0-0.4-0.1L2.6,9C2.5,9,2.5,8.9,2.5,8.8c0,0,0,0,0,0
			c0-0.1,0.1-0.2,0.1-0.3l3.3-4.7c0,0,0,0,0,0l0,0l0,0l0,0c0,0,0,0,0,0c0,0,0,0,0,0c0,0,0,0,0,0l0,0c0,0,0,0,0,0c0,0,0,0,0,0l0,0
			c0,0,0,0,0,0l0,0C6,3.6,6.1,3.6,6.2,3.6c0,0,0,0,0,0c0,0,0,0,0.1,0h4.9c0,0,0,0,0.1,0c0,0,0,0,0.1,0h4.9c0,0,0,0,0.1,0
			c0,0,0,0,0,0c0.1,0,0.2,0.1,0.2,0.1v0c0,0,0,0,0,0c0,0,0,0,0,0l0,0c0,0,0,0,0,0s0,0,0,0c0,0,0,0,0,0l3.3,4.7C20,8.5,20,8.6,20,8.7
			c0,0,0,0,0,0C20,8.9,20,9,19.9,9l-8.3,8.5C11.5,17.6,11.4,17.6,11.3,17.6z M7.7,9.1l3.5,7.4l3.5-7.4l-3.6,0L7.7,9.1z M15.6,9.1
			l-3,6.3l6.2-6.3L15.6,9.1z M3.7,9.1l6.2,6.3l-3-6.3L3.7,9.1z M8,8.4l3.3,0l3.2,0l-3.2-3.9L8,8.4z M16.5,4.9l-0.6,3.5l3.1,0
			L16.5,4.9z M3.6,8.4l3.1,0L6,4.9L3.6,8.4z M6.7,4.3L7.4,8l3-3.7H6.7z M12.1,4.3l3,3.7l0.7-3.7H12.1z"/>
	</g>
	<g>
		<path class="st1" d="M11.3,17.6C11.3,17.6,11.3,17.6,11.3,17.6c-0.2,0-0.3,0-0.4-0.1L2.6,9C2.5,9,2.5,8.9,2.5,8.8c0,0,0,0,0,0
			c0-0.1,0.1-0.2,0.1-0.3l3.3-4.7c0,0,0,0,0,0l0,0l0,0l0,0c0,0,0,0,0,0c0,0,0,0,0,0c0,0,0,0,0,0l0,0c0,0,0,0,0,0c0,0,0,0,0,0l0,0
			c0,0,0,0,0,0l0,0C6,3.6,6.1,3.6,6.2,3.6c0,0,0,0,0,0c0,0,0,0,0.1,0h4.9c0,0,0,0,0.1,0c0,0,0,0,0.1,0h4.9c0,0,0,0,0.1,0
			c0,0,0,0,0,0c0.1,0,0.2,0.1,0.2,0.1v0c0,0,0,0,0,0c0,0,0,0,0,0l0,0c0,0,0,0,0,0s0,0,0,0c0,0,0,0,0,0l3.3,4.7C20,8.5,20,8.6,20,8.7
			c0,0,0,0,0,0C20,8.9,20,9,19.9,9l-8.3,8.5C11.5,17.6,11.4,17.6,11.3,17.6z M7.7,9.1l3.5,7.4l3.5-7.4l-3.6,0L7.7,9.1z M15.6,9.1
			l-3,6.3l6.2-6.3L15.6,9.1z M3.7,9.1l6.2,6.3l-3-6.3L3.7,9.1z M8,8.4l3.3,0l3.2,0l-3.2-3.9L8,8.4z M16.5,4.9l-0.6,3.5l3.1,0
			L16.5,4.9z M3.6,8.4l3.1,0L6,4.9L3.6,8.4z M6.7,4.3L7.4,8l3-3.7H6.7z M12.1,4.3l3,3.7l0.7-3.7H12.1z"/>
	</g>
</g>
</svg>
