<?xml version="1.0" encoding="utf-8"?>
<!-- Generator: Adobe Illustrator 25.0.1, SVG Export Plug-In . SVG Version: 6.00 Build 0)  -->
<svg version="1.1" id="圖層_1" xmlns="http://www.w3.org/2000/svg" xmlns:xlink="http://www.w3.org/1999/xlink" x="0px" y="0px"
	 viewBox="0 0 89.9 84.8" style="enable-background:new 0 0 89.9 84.8;" xml:space="preserve">
<style type="text/css">
	.st0{fill:#6EC8E2;}
</style>
<g>
	<g>
		<g>
			<path class="st0" d="M45,72c-16.1,0-29.3-13.1-29.3-29.3S28.8,13.4,45,13.4s29.3,13.1,29.3,29.3S61.1,72,45,72z M45,16.3
				c-14.6,0-26.4,11.9-26.4,26.4S30.4,69.1,45,69.1s26.4-11.9,26.4-26.4S59.5,16.3,45,16.3z"/>
		</g>
		<g>
			<path class="st0" d="M28.6,40c0,0.3-0.1,0.5-0.1,0.8c0,2.6,1.5,4.7,3.4,4.7c1.9,0,3.4-2.1,3.4-4.7c0-1.4-0.5-2.7-1.2-3.5L28.6,40
				z"/>
		</g>
		<g>
			<path class="st0" d="M56.8,37.3c-0.7,0.9-1.2,2.1-1.2,3.5c0,2.6,1.5,4.7,3.4,4.7c1.9,0,3.4-2.1,3.4-4.7c0-0.3,0-0.5-0.1-0.8
				L56.8,37.3z"/>
		</g>
	</g>
</g>
</svg>
