<?xml version="1.0" encoding="utf-8"?>
<!-- Generator: Adobe Illustrator 25.0.1, SVG Export Plug-In . SVG Version: 6.00 Build 0)  -->
<svg version="1.1" id="圖層_1" xmlns="http://www.w3.org/2000/svg" xmlns:xlink="http://www.w3.org/1999/xlink" x="0px" y="0px"
	 viewBox="0 0 89.9 84.8" style="enable-background:new 0 0 89.9 84.8;" xml:space="preserve">
<style type="text/css">
	.st0{fill:url(#SVGID_1_);}
	.st1{fill:url(#SVGID_2_);}
	.st2{fill:url(#SVGID_3_);}
	.st3{fill:url(#SVGID_4_);}
</style>
<g>
	<linearGradient id="SVGID_1_" gradientUnits="userSpaceOnUse" x1="44.95" y1="11.6222" x2="44.95" y2="70.0155">
		<stop  offset="0" style="stop-color:#6EC8E2"/>
		<stop  offset="0.203" style="stop-color:#6EC4E3"/>
		<stop  offset="0.405" style="stop-color:#6DB8E7"/>
		<stop  offset="0.6067" style="stop-color:#6BA4ED"/>
		<stop  offset="0.8069" style="stop-color:#6988F5"/>
		<stop  offset="1" style="stop-color:#6666FF"/>
	</linearGradient>
	<path class="st0" d="M79.1,61.9c-0.7,2.9-3.1,4.7-5.9,6.2c-3.6,1.9-7.7,3-11.8,3.8c-3.2,0.6-6.4,1.1-9.7,1.2
		c-3.4,0.2-6.9,0.3-10.3,0.2c-5-0.1-9.9-0.7-14.8-1.8c-3.7-0.8-7.3-1.9-10.5-3.8c-1.5-0.8-2.8-1.8-3.9-3.1c-2-2.4-1.9-5.2,0.1-7.6
		c0.9-1,2-1.8,3.2-2.6c0.7-0.5,1.5-0.4,2,0.2c0.5,0.6,0.3,1.2-0.4,1.7c-1.1,0.7-2.1,1.5-2.9,2.5c-1,1.4-1,2.8,0.1,4.2
		c0.9,1.2,2.2,2.1,3.6,2.9c2.8,1.5,5.9,2.5,9.1,3.2c3.8,0.9,7.6,1.4,11.5,1.6c2.6,0.1,5.3,0.3,7.9,0.2c6.5-0.1,12.8-0.8,19-2.5
		c2.8-0.8,5.4-1.7,7.7-3.3c0.8-0.6,1.6-1.2,2.2-2c1.4-1.6,1.3-3.2-0.1-4.8c-1.1-1.3-2.7-2.2-4.3-3c-3.7-1.8-7.7-2.7-11.8-3.5
		c-2.8-0.5-5.7-0.8-8.6-0.9c-2.8-0.1-5.6-0.2-8.4-0.1c-5.4,0.1-10.7,0.7-15.9,2c-0.9,0.2-1.7-0.1-1.9-0.8c-0.2-0.6,0.2-1.2,1.1-1.5
		c2.7-0.7,5.5-1.2,8.3-1.5c2.8-0.3,5.6-0.5,8.3-0.6c3.2-0.1,6.3,0,9.4,0.2c3.8,0.2,7.5,0.7,11.2,1.5c2.8,0.6,5.6,1.4,8.2,2.5
		c2,0.8,3.9,1.8,5.5,3.1c1.3,1.1,2.3,2.4,2.7,4c0,0.1,0,0.1,0.1,0.2C79.1,60.7,79.1,61.3,79.1,61.9z"/>
	<linearGradient id="SVGID_2_" gradientUnits="userSpaceOnUse" x1="45.0679" y1="11.6222" x2="45.0679" y2="70.0155">
		<stop  offset="0" style="stop-color:#6EC8E2"/>
		<stop  offset="0.203" style="stop-color:#6EC4E3"/>
		<stop  offset="0.405" style="stop-color:#6DB8E7"/>
		<stop  offset="0.6067" style="stop-color:#6BA4ED"/>
		<stop  offset="0.8069" style="stop-color:#6988F5"/>
		<stop  offset="1" style="stop-color:#6666FF"/>
	</linearGradient>
	<path class="st1" d="M45.5,11.4c0.3,0.3,0.6,0.5,0.8,0.8c2.7,4.6,5.4,9.3,8.1,14c2.5,4.4,2,10-1.1,13.8c-2.1,2.7-4.8,4.1-8.1,4.1
		c-4.4,0-7.6-2.2-9.6-6.5c-1.8-4-1.6-8,0.6-11.7c2.6-4.6,5.3-9.2,7.9-13.7c0.2-0.3,0.5-0.5,0.7-0.8C45,11.4,45.2,11.4,45.5,11.4z
		 M45.1,15c-0.1,0.2-0.2,0.3-0.3,0.4c-2.2,3.9-4.4,7.7-6.7,11.6c-1.2,2-1.7,4.2-1.4,6.6c0.5,4.3,3.7,7.7,7.7,8
		c3.2,0.2,5.9-1.1,7.6-4.1c2-3.3,2-6.7,0.2-10.1c-1.9-3.4-3.9-6.8-5.9-10.2C45.9,16.5,45.5,15.8,45.1,15z"/>
	<linearGradient id="SVGID_3_" gradientUnits="userSpaceOnUse" x1="44.9673" y1="11.6222" x2="44.9673" y2="70.0155">
		<stop  offset="0" style="stop-color:#6EC8E2"/>
		<stop  offset="0.203" style="stop-color:#6EC4E3"/>
		<stop  offset="0.405" style="stop-color:#6DB8E7"/>
		<stop  offset="0.6067" style="stop-color:#6BA4ED"/>
		<stop  offset="0.8069" style="stop-color:#6988F5"/>
		<stop  offset="1" style="stop-color:#6666FF"/>
	</linearGradient>
	<path class="st2" d="M45,65.9c-3.9,0-7.7-0.3-11.5-1.2c-2.2-0.5-4.3-1.1-6.1-2.4c-1.2-0.8-2-1.8-2-3.2c0-0.9,0.5-1.6,1.1-2.2
		c1.1-1,2.5-1.7,4-2.2c2.7-0.9,5.5-1.5,8.3-1.7c2.3-0.2,4.6-0.3,7-0.3c4.2,0,8.3,0.4,12.2,1.6c1.9,0.5,3.7,1.2,5.1,2.4
		c1.9,1.7,1.8,3.9-0.3,5.4c-1.5,1.1-3.2,1.7-5,2.2c-3.3,0.9-6.8,1.4-10.3,1.5C46.7,65.8,45.8,65.9,45,65.9z M44.9,63.6
		c2-0.1,4-0.2,6-0.4c2.4-0.2,4.7-0.6,6.9-1.4c1.1-0.4,2.2-0.9,3.1-1.5c1-0.6,1-1.3,0.1-2.1c-0.8-0.7-1.9-1.1-2.9-1.4
		c-3.7-1.2-7.6-1.6-11.5-1.8c-2.4-0.1-4.9,0-7.3,0.2c-2.8,0.3-5.6,0.7-8.2,1.7c-1,0.4-2.1,0.8-2.8,1.6c-0.4,0.4-0.5,0.8,0,1.3
		c0.4,0.4,1,0.8,1.6,1.1c1.8,0.9,3.8,1.4,5.9,1.8C38.9,63.3,41.9,63.5,44.9,63.6z"/>
	<linearGradient id="SVGID_4_" gradientUnits="userSpaceOnUse" x1="44.9564" y1="11.6222" x2="44.9564" y2="70.0155">
		<stop  offset="0" style="stop-color:#6EC8E2"/>
		<stop  offset="0.203" style="stop-color:#6EC4E3"/>
		<stop  offset="0.405" style="stop-color:#6DB8E7"/>
		<stop  offset="0.6067" style="stop-color:#6BA4ED"/>
		<stop  offset="0.8069" style="stop-color:#6988F5"/>
		<stop  offset="1" style="stop-color:#6666FF"/>
	</linearGradient>
	<path class="st3" d="M45,56.7c1.1,0,2.2,0.1,3.2,0.6c0.5,0.2,0.9,0.5,0.9,1c0.1,0.6-0.2,1-0.8,1.3c-0.7,0.4-1.5,0.5-2.4,0.6
		c-1.3,0.1-2.5,0.1-3.7-0.3c-0.4-0.1-0.7-0.3-1-0.5c-0.8-0.6-0.7-1.5,0.2-2c0.7-0.4,1.4-0.6,2.2-0.7C44.1,56.7,44.5,56.7,45,56.7z
		 M42.6,58.5c0.9,0.6,3.9,0.5,4.6,0C45.7,58,44.2,58,42.6,58.5z"/>
</g>
</svg>
