<?xml version="1.0" encoding="utf-8"?>
<!-- Generator: Adobe Illustrator 25.0.1, SVG Export Plug-In . SVG Version: 6.00 Build 0)  -->
<svg version="1.1" id="圖層_1" xmlns="http://www.w3.org/2000/svg" xmlns:xlink="http://www.w3.org/1999/xlink" x="0px" y="0px"
	 viewBox="0 0 235.9 169.8" style="enable-background:new 0 0 235.9 169.8;" xml:space="preserve">
<style type="text/css">
	.st0{fill:#9F93F3;}
	.st1{fill:#FEFEFE;}
	.st2{fill:#CAB9F6;}
	.st3{fill:#FFFFFF;}
	.st4{fill:#ECAD81;}
	.st5{fill:#EBD8F8;}
	.st6{fill:#67637B;}
	.st7{fill:#FEC9A2;}
	.st8{opacity:0.5;fill:#FFFFFF;enable-background:new    ;}
	.st9{fill:none;stroke:#67637B;stroke-linecap:round;stroke-linejoin:round;stroke-miterlimit:10;}
	.st10{fill:#FEC9A3;}
	.st11{fill:#827CED;}
</style>
<g>
	<path class="st0" d="M86.6,85c0.5,2.5,1,5,1.3,7.6c0.4,3.1,0.7,6.2,0.8,9.4c0.1,3.1,0,6.2-0.4,9.2c-0.3,2.3-0.3,4.6-0.3,6.8
		c0,3,0.2,6,0.5,9.1c0.2,2.3,0.4,4.5,0.7,6.8c0.2,1.6,0.4,15.3,0.7,28.6h10.6c-0.1-13.1-0.1-26.4-0.2-27.9
		c-0.2-3.8-0.1-7.6-0.1-11.4c0-4.2-0.7-6.5-0.7-10.6c0-3,0-5,0-6s0.4-2.5,0-3c-0.2-0.3,7.1-1.7,7-2c-0.5-2.5-1.5-3.5-2-6
		c-0.4-2.2-2.6-3.8-3-6c-0.6-3-9.5-4.7-10.1-7.7c-0.2-0.8-0.1-0.9,0.6-1.3c1.2-0.7,2.5-1.2,3.8-1.6c0.2,0,0.3,0,0.4-0.2
		c-1.3-0.2-2.5-0.4-3.8-0.6c-0.6-0.1-1.2-0.4-1.7-0.8c-1.1-0.8-1.7-2-2.1-3.3c-0.5-1.6-0.7-3.3-1-4.9c-0.1-0.6,0-1.2-0.1-1.8
		c-0.3,0.2-0.7,0.4-1.1,0.3c-0.2,0-0.2,0.1-0.3,0.2c-0.2,2.1-0.5,4.1-0.7,6.2c-0.1,1.3-0.3,2.6-0.5,4c0,0.3,0,0.6,0.1,0.8
		C85.5,80.9,86.2,82.9,86.6,85z"/>
	<polygon class="st0" points="95.7,162.5 91.9,68.7 73.7,70.3 67.1,76.8 64.3,88 64.3,162.5 	"/>
	<polygon class="st1" points="146.4,162.5 210.4,162.5 204.9,87.4 200.9,87 186.9,81.2 174.2,69.5 155.7,74.7 151.7,76.4 153.7,93
		151.7,93.8 	"/>
	<g>
		<path class="st2" d="M78.4,60.5l6.9,1.5c0,0-2.3,24.7-9.6,37.1c0,0-6.2-6.6-11.3-7.6l13.9-21L78.4,60.5z"/>
		<polygon class="st3" points="64.3,54.1 74.9,51.9 78.3,52.7 87.8,54.1 84.7,79.7 69.4,79.6 		"/>
		<path class="st4" d="M67.5,66.6c-2.1,0.7-4.3,0.8-6.4,0.1c-1.8-0.6-3.3-1.7-4.6-3.2C55,61.9,54,60,53.1,57.9
			c-0.1-0.1-0.1-0.2-0.2-0.3c-1.1,1.6-2.3,3.1-3.1,4.8c-0.6,1.3-0.6,2.6-0.4,4c0.4,2.1,1.1,4.1,1.6,6.1c0.3,1.2,0.6,2.3,0.7,3.6
			c0.1,1.6-0.4,3.1-1.2,4.5c-1,1.7-2.3,3.2-3.4,4.8c-1.2,1.6-2.3,3.3-2.9,5.2c0,0.2-0.1,0.3-0.1,0.5c0.9,0.6,1.8,1.2,2.7,1.7
			c2.2,1.3,4.4,2.3,6.9,2.8c4.1,0.8,7.5-0.4,10.2-3.6c1.7-2,7.7-10,8.6-12.4c0.7-1.8-1.6,0.9-1-1c0.1-0.4-1.9,1.4-2,1
			c-0.5-2.9-1-6.8-1.5-9.6C67.8,68.9,67.6,67.7,67.5,66.6z"/>
		<path class="st5" d="M77.2,82.5c1.9-0.1,3.7-0.3,5.5-0.9c0.5-0.2,1-0.5,1.4-0.8c0.9-0.7,0.8-1.8-0.2-2.4c-1.1-0.7-2.4-1-3.6-1.3
			c-1.1-0.2-2.3-0.3-3.4-0.3c-1.8,0.1-3.6,0.3-5.3,0.9c-0.7,0.3-1.4,0.6-1.8,1.3c-0.3,0.5-0.2,1,0.2,1.4c0.6,0.7,1.4,1.1,2.3,1.3
			c1.3,0.4,2.5,0.6,3.9,0.6C76.5,82.4,76.8,82.5,77.2,82.5z"/>
		<path class="st6" d="M81,36.7c0,0,6.3-21.3-3.9-22.8c0,0-15.9-16.6-31.8,2.7c0,0-3.4,8-11.4,9.1c0,0,2.3,3.4,6.8,3.4
			c0,0-2.3,2.3-6.8,1.2c0,0,2.3,6,5.1,6.4c0,0,1.3,5.5,4.9,7.4c3.6,2,4.8,10,4.8,10L81,36.7z"/>
		<path class="st7" d="M78.3,52.7c0.7-2.2,1.4-4.4,1.8-6.7c0.6-3,1-6.1,0.9-9.2c-0.2-4.6-1.3-8.9-3.9-12.8c-0.9-1.3-0.9-1.3-2.5-1.4
			c-0.4,0-0.7-0.1-1.1-0.3c-0.2-0.2-0.5-0.3-0.7-0.5C72,21.1,72,21,71,21.6c-4.8,2.7-9,6.2-12,10.9c-2.2,3.5-3.4,7.4-3.3,11.6
			c0,0.8,0.3,1.6,0.4,2.4c0.4,2.8,0,5.5-1.4,8.1c-0.6,1-1.6,3.3-1.6,3.4c0.4,0.9,0.8,1.8,1.3,2.6c0.6,1.1,1.3,2,2.1,3
			c1.3,1.5,2.7,2.6,4.6,3.2c2.1,0.7,4.3,0.6,6.4-0.1c-0.2-1.2-0.4-2.4-0.6-3.5c-0.3-2-0.7-4.1-1-6.1c-0.1-0.6-0.2-1.2-0.3-1.8
			c0-0.2,0-0.3,0.2-0.4c2.1-0.7,4.2-1.3,6.4-1.6C74.2,52.8,76.3,52.6,78.3,52.7z"/>
		<path class="st7" d="M48.7,54.1c0,0-2.3-6.8-1.1-13.6l1.1-4.5c0,0,2.4,2.2,8,1.1c5.6-1.1,3.6,12.2,3.6,12.2l-2,16
			C58.3,65.3,51,59.8,48.7,54.1z"/>
		<path class="st6" d="M73.7,20c0,0-9.3,16.7-27.3,22.7c-6.8,2.3,0.4-14.6,0.4-14.6L73.7,20z"/>
		<g>
			<ellipse class="st8" cx="60.1" cy="42.8" rx="5.7" ry="3.8"/>
			<ellipse class="st8" cx="76" cy="42.8" rx="5.7" ry="3.8"/>
			<path class="st9" d="M53.8,43.3c0,0,0,3.3,5.8,3.3c6.1,0,5.5-3.3,5.5-3.3"/>
			<path class="st9" d="M69.7,43.3c0,0,0,3.3,5.8,3.3c6.1,0,5.5-3.3,5.5-3.3"/>
			<path class="st9" d="M65.2,43.9c0,0,2.5-0.6,4.7,0"/>
		</g>
		<path class="st0" d="M50.4,60.5L43.5,62c0,0,2.3,24.7,9.6,37.1c0,0,6.2-6.6,11.3-7.6l-13.5-31H50.4z"/>
		<path class="st10" d="M87.4,67.2c0.2,0.6,0,1.2,0.1,1.8c0.3,1.7,0.4,3.3,1,4.9c0.4,1.3,1,2.5,2.1,3.3c0.5,0.4,1.1,0.7,1.7,0.8
			c1.3,0.2,2.5,0.4,3.8,0.6c1.2-0.1,2.3-0.3,3.4-0.8c1.6-0.7,2.6-2,3.1-3.6c0.4-1.4,0.5-2.8,0.7-4.3c0-0.2,0.1-0.5,0.1-0.7
			c-0.8-1.8-1.6-3.6-2.6-5.2c-0.5-0.9-1.2-1.4-2.2-1.7c-2-0.7-4-1.1-6-1.4c-1.3-0.2-2.7-0.4-4.1-0.4c-1.8-0.1-3.6,1.8-3.8,3.4
			c-0.1,0.7,0.2,1.2,0.8,1.6c0.5,0.4,1.1,0.6,1.6,1.1C87.3,66.8,87.4,67,87.4,67.2z"/>
	</g>
	<g>
		<path class="st6" d="M159.8,74.2c-1.4,0.1-2.7,0.2-4.1,0.5c0-1.5-0.4-2.8-0.8-4.2c-0.2-0.6-0.4-1.1-0.7-1.6
			c-1.5-2.7-2.2-5.7-2.4-8.8c-0.2-4.3,0.5-8.4,2-12.4c0.7-1.8,1.9-3.1,3.5-4.2c1.4-0.9,2.9-1.7,4.2-2.7c2.4-1.8,5.2-2.7,8.1-3.3
			c2.8-0.6,5.7-0.9,8.5-0.8c2.1,0.1,4.1,0.3,5.9,1.3c1.7,0.9,3.1,2.1,4.3,3.5c2.5,2.8,4.3,6,5.6,9.5c0.5,1.3,1.3,2.5,2.3,3.5
			c1.1,1.2,2,2.6,2.4,4.2c0.3,1.4,0.4,2.8,0.3,4.2c-0.1,2.4-0.2,4.7-0.1,7.1c0.2,2.9,0.7,5.7,1.4,8.5c0.6,2.5,1.3,5,2,7.4
			c0.4,1.4,0.8,2.8,1,4.3c0.1,1.3,0,2.6-0.1,3.9c-0.3,2.4-0.7,4.8-0.9,7.3c-0.2,2.6,0.2,5.1,1,7.6c0.8,2.4,1.6,4.8,2.3,7.2
			c0.2,0.9,0.4,1.7,0.4,2.6c0.1,1.3-0.3,2.5-1.4,3.3c-0.2,0.1-0.4,0.3-0.6,0.5c-0.8,0.6-1.4,1.4-1.8,2.4c-0.5,1.4-1.3,2.7-2.3,3.9
			c-0.4,0.4-0.8,0.8-1.3,1c-0.8,0.4-1.4,0.2-1.8-0.6c-0.3-0.7-0.4-1.5-0.4-2.3c0-1,0.1-2,0.1-3c0-1.7-0.6-3.2-1.8-4.5
			c-0.8-0.9-1.7-1.7-2.5-2.6c-1-1.1-1.8-2.2-2.1-3.6c-0.2-0.7-0.2-1.5,0-2.2c0.2-1,0.3-2.1,0-3.1c0-0.1-0.1-0.3-0.1-0.4
			c-0.5-1.7-1.5-3.2-2.5-4.6s-2.1-2.7-3-4.2c-0.7-1.2-1.1-2.5-1.1-4c0-1.1,0.3-2.1,0.6-3.1c0.5-1.8,1.1-3.5,1.4-5.4
			c0.2-1.2,0.2-2.4-0.4-3.5c-0.8-1.5-1.8-2.8-2.8-4.2c-0.5-0.9-1.1-1.8-1.6-2.7c-1.2-2.2-1.6-4.6-1.2-7.1c0.1-0.7,0.3-1.4,0.3-2.1
			c0.1-3.7-0.9-7.1-2.9-10.2c-2.6-4.1-6.3-7.2-10.5-9.6c-0.9-0.5-0.9-0.5-1.7,0.2c-0.2,0.2-0.4,0.3-0.6,0.5
			c-0.3,0.2-0.6,0.3-0.9,0.3c-1.4,0-1.4,0.1-2.2,1.2c-2.3,3.4-3.3,7.2-3.5,11.2c-0.1,2.7,0.2,5.4,0.8,8.1
			C158.7,70.3,159.2,72.3,159.8,74.2z"/>
		<path class="st7" d="M159.8,74.2c-0.6-1.9-1.2-3.9-1.6-5.9c-0.6-2.7-0.9-5.4-0.8-8.1c0.1-4.1,1.1-7.9,3.5-11.2
			c0.8-1.1,0.8-1.2,2.2-1.2c0.3,0,0.6-0.1,0.9-0.3c0.2-0.1,0.4-0.3,0.6-0.5c0.8-0.6,0.8-0.6,1.7-0.2c4.3,2.4,7.9,5.5,10.5,9.6
			c2,3.1,3,6.5,2.9,10.2c0,0.7-0.2,1.4-0.3,2.1c-0.4,2.5,0,4.9,1.2,7.1c0.5,0.9,1.1,1.8,1.6,2.7c-0.1,0-0.2,0.2-0.2,0.3
			c-0.8,1.8-1.7,3.5-3,4.9c-1.1,1.3-2.4,2.3-4,2.8c-1.9,0.6-3.8,0.5-5.6-0.1c0.2-1,0.3-2.1,0.5-3.1c0.3-1.8,0.6-3.6,0.9-5.4
			c0.1-0.5,0.1-1,0.2-1.6c0-0.2,0-0.3-0.2-0.3c-1.8-0.6-3.7-1.1-5.6-1.4C163.4,74.4,161.6,74.2,159.8,74.2z"/>
		<path class="st4" d="M169.4,86.5c1.9,0.6,3.8,0.7,5.6,0.1c1.6-0.5,2.9-1.5,4-2.8c1.3-1.5,2.2-3.2,3-4.9c0-0.1,0.1-0.2,0.2-0.3
			c0.9,1.4,2,2.7,2.8,4.2c0.6,1.1,0.6,2.3,0.4,3.5c-0.3,1.8-0.9,3.6-1.4,5.4c-0.3,1-0.6,2.1-0.6,3.1c-0.1,1.4,0.3,2.7,1.1,4
			c0.9,1.5,2,2.8,3,4.2c1,1.4,2,2.9,2.5,4.6c0,0.1,0.1,0.3,0.1,0.4c-0.8,0.5-1.6,1-2.4,1.5c-1.9,1.1-3.9,2-6.1,2.4
			c-3.6,0.7-6.6-0.4-9-3.2c-1.5-1.8-2.5-3.8-3.3-6c-0.6-1.6-1.1-3.2-1.7-4.9c-0.1-0.4,0-0.7,0-1.1c0.4-2.5,0.8-4.9,1.2-7.4
			C169.1,88.5,169.2,87.5,169.4,86.5z"/>
		<path class="st10" d="M151.9,87c-0.1,0.5,0,1-0.1,1.6c-0.3,1.5-0.4,2.9-0.9,4.3c-0.4,1.1-0.9,2.2-1.8,2.9c-0.5,0.4-1,0.6-1.5,0.7
			c-1.1,0.2-2.2,0.4-3.3,0.6c-1-0.1-2-0.3-3-0.7c-1.4-0.6-2.3-1.7-2.7-3.2c-0.4-1.2-0.5-2.5-0.6-3.8c0-0.2-0.1-0.4-0.1-0.6
			c0.7-1.6,1.4-3.1,2.3-4.6c0.5-0.8,1.1-1.2,1.9-1.5c1.7-0.6,3.5-1,5.3-1.2c1.2-0.2,2.4-0.3,3.6-0.4c1.6-0.1,3.2,1.6,3.4,3
			c0.1,0.6-0.2,1.1-0.7,1.4s-1,0.6-1.4,1C152,86.6,151.9,86.8,151.9,87z"/>
		<path class="st5" d="M160.9,100.4c-1.7-0.1-3.3-0.2-4.9-0.8c-0.5-0.2-0.9-0.4-1.2-0.7c-0.8-0.6-0.7-1.6,0.2-2.1
			c1-0.6,2.1-0.9,3.2-1.1c1-0.2,2-0.3,3-0.2c1.6,0.1,3.2,0.2,4.7,0.8c0.6,0.2,1.2,0.5,1.6,1.2c0.2,0.4,0.2,0.8-0.2,1.2
			c-0.6,0.6-1.3,0.9-2,1.1c-1.1,0.3-2.2,0.5-3.4,0.6C161.5,100.4,161.2,100.5,160.9,100.4z"/>
	</g>
	<path class="st2" d="M140.7,162.5h9.9c0.1-11,0.2-21.9,0.3-22.8c0.2-2.7,0.4-5.3,0.4-8c0-2,0-4-0.3-6c-0.4-2.7-0.5-5.4-0.4-8.1
		c0.1-2.8,0.3-5.5,0.7-8.2c0.3-2.2,0.7-4.5,1.1-6.7c0.4-1.9,1-3.6,1.5-5.5c0.1-0.2,0.1-0.5,0.1-0.7c-0.1-1.2-0.3-2.3-0.4-3.5
		c-0.2-1.8-0.4-3.6-0.6-5.4c0-0.2-0.1-0.2-0.2-0.2c-0.4,0.1-0.7-0.1-1-0.3c-0.1,0.5,0,1-0.1,1.6c-0.3,1.5-0.4,2.9-0.9,4.3
		c-0.4,1.1-0.9,2.2-1.8,2.9c-0.5,0.4-1,0.6-1.5,0.7c-1.1,0.2-2.2,0.4-3.3,0.6c0.1,0.2,0.3,0.2,0.4,0.2c1.2,0.4,2.3,0.8,3.3,1.4
		c0.6,0.4,0.7,0.4,0.5,1.2c-0.5,2.7-1.1,5.3-1.6,8c-0.4,2-0.8,3.9-1.2,5.9c-0.4,2.2-0.9,4.4-1.3,6.6c-0.1,0.3,0,0.6-0.2,0.9
		c-0.3,0.4-0.6,0.8-1,1.2c-0.8,1-1.6,1.9-2.4,2.9c0,3.7,0,7.3,0,11C140.7,137.9,140.7,150.3,140.7,162.5z"/>
	<path class="st11" d="M10,108.8c0.1,2.4,0.1,4.7,0.2,7.1c0.1,2.3,0.1,4.7,0.2,7c0.1,2.7,0.1,5.4,0.2,8.1c0.1,2.9,0.1,3.6,0.2,6.5
		c0,0.6-0.3,3.4-0.3,4c0,0.1,0.1,10.3,0.2,21h53.7v-71l-13.5-31c0,0-10.1,1.6-14.6,3.8c-0.8,0.4-1.6,0.8-2.5,1.1
		c-3.3,0.8-6.6,1.7-9.7,3.2c-3.2,1.5-5.7,3.8-7.3,7c-0.5,1-1.2,2-1.7,3c-1.2,2.1-1.9,4.3-2.6,6.6c-1,3.3-1.8,6.7-2.3,10.2
		c-0.3,1.9-0.5,3.9-0.5,5.9c0,1.8,0.2,3.6,0.3,5.4C9.9,107.4,9.9,108.1,10,108.8z"/>
	<path class="st0" d="M50.4,60.5L43.5,62c0,0,2.3,24.7,9.6,37.1c0,0,6.2-6.6,11.3-7.6l-13.5-31H50.4z"/>
	<path class="st2" d="M99.2,120.9c1.8,2.6,3.6,5.1,5.8,7.3c1.7,1.7,3.8,2.9,6.1,3.7c1.2,0.5,2.5,0.8,3.9,0.8c1.6,0,2.9-0.7,3.9-1.9
		s1.7-2.6,2.2-4c0.8-1.8,1.4-3.6,1.8-5.6c0.4-2.4,0.4-4.8,0-7.2c-0.4-2.2-1-4.4-1.6-6.6c-1.2-3.7-2.7-7.3-4.1-11
		c-1.2-3.1-2.6-6.2-4.4-9c-1-1.6-2-3.2-3-4.9c-1.2-1.9-2.1-3.9-2.7-6s-1.2-4.3-2-6.4c-0.2-0.4-0.4-0.9-0.6-1.3
		c-0.3-0.4-0.5-0.4-0.8,0l-0.1,0.1c-0.1,0.2-0.2,0.5-0.2,0.7c-0.4,1.4-0.8,2.8-1.5,4.1c-0.8,1.5-2,2.6-3.8,2.9
		c-1.2,0.2-2.3,0.2-3.5,0.1c-0.1,0.2-0.3,0.1-0.5,0.1c-1.4,0.1-2.7,0.3-4.1,0.8c-0.8,0.3-0.8,0.3-0.8,1.2"/>
	<path class="st5" d="M126.6,103c1.2-1.2,2.3-2.4,3.5-3.7"/>
	<path class="st5" d="M130,99.3c1.3-1.4,2.5-3,3.4-4.7s1.8-3.5,2.9-5.1c0.2-0.4,0.5-0.7,0.8-1c0.4-0.3,0.5-0.3,0.7,0.2
		c0,0,0,0.1,0.1,0.1c0,0.2,0.1,0.4,0.1,0.6c0.1,1.3,0.2,2.5,0.6,3.8c0.5,1.4,1.3,2.6,2.7,3.2c1,0.4,2,0.5,3,0.7
		c0.1,0.2,0.3,0.2,0.4,0.2c1.2,0.4,2.3,0.8,3.3,1.4c0.6,0.4,0.7,0.4,0.5,1.2c-0.5,2.7-1.1,5.3-1.6,8c-0.4,2-0.8,3.9-1.2,5.9
		c-0.4,2.2-0.9,4.4-1.3,6.6c-0.1,0.3,0,0.6-0.2,0.9c-0.3,0.4-0.6,0.8-1,1.2c-0.8,1-1.6,1.9-2.4,2.9c-0.5,0.6-1,1.2-1.5,1.7
		c-0.6,0.7-1.3,1.5-1.9,2.2c-1.6,1.7-3.1,3.4-4.8,5c-2,1.9-4,3.8-6.3,5.3c-1.8,1.2-3.8,1.8-5.9,2.2c-1.2,0.2-2.3,0.3-3.5,0
		c-1.4-0.3-2.3-1.1-3-2.3s-1-2.5-1.2-3.8c-0.3-1.7-0.6-3.4-0.6-5.1c0-2.1,0.5-4.2,1.2-6.2c0.7-1.9,1.6-3.6,2.6-5.4
		c1.7-3,3.6-5.9,5.5-8.7c1.6-2.5,3.3-4.9,5.3-7"/>
	<path class="st0" d="M204.9,90.5c0.2,1.8,0.3,3.5,0.5,5.3c0.2,2.6,0.5,5.1,0.6,7.7c0.2,2,0.3,4,0.4,6c0.1,2.5,0.3,5,0.3,7.5
		c0,1.7,0,3.4-0.2,5.1c-0.3,2.5-0.4,5-0.4,7.5c0,2.4,0.1,4.8,0.2,7.3c0,1.8,0,3.6,0,5.5c0,0.7,0,10.1-0.1,20.2h19.3
		c0-11.6,0.1-23.3,0.1-24.5c0.1-2.1,0.1-4.1,0.2-6.2c0.1-2.1,0.1-4.1,0.2-6.2c0-0.6,0.1-1.3,0.1-1.9c0.1-1.6,0.3-3.2,0.3-4.8
		c0-1.7-0.2-3.5-0.5-5.2c-0.4-3-1.1-6-2-8.9c-0.6-2-1.3-4-2.3-5.8c-0.5-0.9-1-1.7-1.5-2.6c-1.4-2.8-3.6-4.8-6.4-6.1
		c-2.8-1.3-5.7-2.1-8.7-2.8c-0.4-0.1-0.3,0.2-0.3,0.3C204.7,88.7,204.8,89.6,204.9,90.5z"/>
</g>
</svg>
