<?xml version="1.0" encoding="utf-8"?>
<!-- Generator: Adobe Illustrator 25.0.1, SVG Export Plug-In . SVG Version: 6.00 Build 0)  -->
<svg version="1.1" id="圖層_1" xmlns="http://www.w3.org/2000/svg" xmlns:xlink="http://www.w3.org/1999/xlink" x="0px" y="0px"
	 viewBox="0 0 89.9 84.8" style="enable-background:new 0 0 89.9 84.8;" xml:space="preserve">
<style type="text/css">
	.st0{fill:#67C579;}
</style>
<g>
	<g>
		<g>
			<path class="st0" d="M45,71.8c-16.2,0-29.4-13.2-29.4-29.4S28.8,13,45,13s29.4,13.2,29.4,29.4S61.2,71.8,45,71.8z M45,15.9
				c-14.6,0-26.5,11.9-26.5,26.5S30.3,68.9,45,68.9S71.5,57,71.5,42.4S59.6,15.9,45,15.9z"/>
		</g>
		<g>
			<path class="st0" d="M38.8,40.5c-0.3,0-0.7-0.1-0.9-0.3c0,0-2.9-2.5-5.7-2.5s-5.7,2.5-5.7,2.5c-0.6,0.5-1.5,0.4-2-0.2
				c-0.5-0.6-0.4-1.5,0.1-2c0.2-0.1,3.7-3.2,7.6-3.2s7.4,3.1,7.6,3.2c0.6,0.5,0.7,1.4,0.1,2C39.6,40.3,39.2,40.5,38.8,40.5z"/>
		</g>
		<g>
			<path class="st0" d="M64.4,40.5c-0.3,0-0.7-0.1-0.9-0.3c0,0-2.9-2.5-5.7-2.5s-5.7,2.5-5.7,2.5c-0.6,0.5-1.5,0.4-2-0.2
				c-0.5-0.6-0.4-1.5,0.1-2c0.2-0.1,3.7-3.2,7.6-3.2s7.4,3.1,7.6,3.2c0.6,0.5,0.7,1.4,0.1,2C65.2,40.3,64.8,40.5,64.4,40.5z"/>
		</g>
	</g>
</g>
</svg>
