<?xml version="1.0" encoding="utf-8"?>
<!-- Generator: Adobe Illustrator 25.0.1, SVG Export Plug-In . SVG Version: 6.00 Build 0)  -->
<svg version="1.1" id="圖層_1" xmlns="http://www.w3.org/2000/svg" xmlns:xlink="http://www.w3.org/1999/xlink" x="0px" y="0px"
	 viewBox="0 0 89.9 84.8" style="enable-background:new 0 0 89.9 84.8;" xml:space="preserve">
<style type="text/css">
	.st0{fill:#848484;}
</style>
<g>
	<g>
		<g>
			<path class="st0" d="M45,71.6c-16.1,0-29.3-13.1-29.3-29.3S28.9,13,45,13s29.3,13.1,29.3,29.3S61.1,71.6,45,71.6z M45,15.9
				c-14.6,0-26.4,11.9-26.4,26.4S30.4,68.7,45,68.7s26.4-11.9,26.4-26.4S59.6,15.9,45,15.9z"/>
		</g>
		<g>
			<path class="st0" d="M32.3,40.4c-3.8,0-7.4-3-7.5-3.2c-0.6-0.5-0.7-1.4-0.1-2c0.5-0.6,1.4-0.7,2-0.1c0.1,0,3,2.5,5.7,2.5
				c2.7,0,5.7-2.5,5.7-2.5c0.6-0.5,1.5-0.4,2,0.2c0.5,0.6,0.4,1.5-0.1,2C39.6,37.4,36.1,40.4,32.3,40.4z"/>
		</g>
		<g>
			<path class="st0" d="M57.7,40.4c-3.8,0-7.4-3-7.5-3.2c-0.6-0.5-0.7-1.4-0.1-2c0.5-0.6,1.4-0.7,2-0.1c0.1,0,3,2.5,5.7,2.5
				c2.7,0,5.7-2.5,5.7-2.5c0.6-0.5,1.5-0.4,2,0.2c0.5,0.6,0.4,1.5-0.1,2C65.1,37.4,61.6,40.4,57.7,40.4z"/>
		</g>
	</g>
</g>
</svg>
