<?xml version="1.0" encoding="utf-8"?>
<!-- Generator: Adobe Illustrator 25.0.1, SVG Export Plug-In . SVG Version: 6.00 Build 0)  -->
<svg version="1.1" id="圖層_1" xmlns="http://www.w3.org/2000/svg" xmlns:xlink="http://www.w3.org/1999/xlink" x="0px" y="0px"
	 viewBox="0 0 89.9 84.8" style="enable-background:new 0 0 89.9 84.8;" xml:space="preserve">
<style type="text/css">
	.st0{fill:url(#SVGID_1_);}
	.st1{fill:url(#SVGID_2_);}
	.st2{fill:url(#SVGID_3_);}
	.st3{fill:url(#SVGID_4_);}
	.st4{fill:url(#SVGID_5_);}
	.st5{fill:url(#SVGID_6_);}
</style>
<g>
	<g>
		<g>
			<linearGradient id="SVGID_1_" gradientUnits="userSpaceOnUse" x1="49.0437" y1="10.1387" x2="48.6804" y2="71.1648">
				<stop  offset="0" style="stop-color:#FFA75C"/>
				<stop  offset="1" style="stop-color:#CD615A"/>
			</linearGradient>
			<path class="st0" d="M49.9,67.5H37.8c-1.7,0-3.5-0.5-5-1.6c-1.8-1.2-4.4-3.4-6.7-7.1C22.2,52.4,21,41.4,21,37
				c0-1.9,0.5-3.4,1.5-4.6c1.3-1.5,3.2-2,4.5-2l16.9,0l17,0c0.6,0,2.8,0.1,4.4,2c1,1.1,1.5,2.6,1.5,4.4c1.5-0.5,3-0.6,4.3-0.1
				c4.1,1.5,5.3,5.6,5.4,5.9c0.2,0.8,2,8.1-4.4,12.2C68.4,57,63.6,59,60.7,60c-2.1,3-4.3,4.9-5.9,5.9C53.4,67,51.7,67.5,49.9,67.5z
				 M26.8,33.5c-0.4,0-1.4,0.1-2.1,0.9C24.2,35,24,35.9,24,37c0,4.1,1.2,14.3,4.7,20.2c2,3.2,4.2,5.2,5.8,6.2c1,0.7,2.1,1,3.3,1
				h12.2c1.1,0,2.3-0.4,3.3-1c1.4-0.9,3.4-2.7,5.3-5.5c0.2-0.3,0.4-0.5,0.7-0.6c2.6-0.9,7.5-2.9,11.1-5.1c4.6-2.9,3.3-8.2,3.1-8.8
				c0,0,0,0,0,0c0-0.1-0.8-2.9-3.5-3.8c-1.3-0.5-2.9,0.3-4,1c-0.5,0.3-1.1,0.3-1.6,0c-0.5-0.3-0.8-0.8-0.7-1.4
				c0.1-0.8,0.1-1.6,0.1-2.2c0-1.2-0.3-2.1-0.8-2.7c-0.7-0.9-1.9-0.9-2.1-0.9l-17,0L26.8,33.5C26.9,33.5,26.9,33.5,26.8,33.5z"/>
		</g>
	</g>
	<g>
		<linearGradient id="SVGID_2_" gradientUnits="userSpaceOnUse" x1="33.4072" y1="10.0456" x2="33.0439" y2="71.0717">
			<stop  offset="0" style="stop-color:#FFA75C"/>
			<stop  offset="1" style="stop-color:#CD615A"/>
		</linearGradient>
		<path class="st1" d="M34,25.5c-0.3,0-0.6-0.1-0.9-0.3c-1.3-1-3.3-4-1.1-7.9c1.5-2.6,0.4-4,0.2-4.1c-0.5-0.6-0.5-1.5,0.1-2.1
			c0.6-0.6,1.5-0.6,2.1,0c0.1,0.1,2.9,2.9,0.3,7.7c-1.4,2.5,0,3.9,0.3,4.1c0.6,0.5,0.8,1.5,0.3,2.1C34.9,25.3,34.4,25.5,34,25.5z"/>
	</g>
	<g>
		<linearGradient id="SVGID_3_" gradientUnits="userSpaceOnUse" x1="42.9196" y1="10.1022" x2="42.5563" y2="71.1283">
			<stop  offset="0" style="stop-color:#FFA75C"/>
			<stop  offset="1" style="stop-color:#CD615A"/>
		</linearGradient>
		<path class="st2" d="M43.5,25.5c-0.3,0-0.6-0.1-0.9-0.3c-1.3-1-3.3-4-1.1-7.9c1.5-2.6,0.4-4,0.2-4.1c-0.5-0.6-0.5-1.5,0.1-2.1
			c0.6-0.6,1.5-0.6,2.1,0c0.1,0.1,2.9,2.9,0.3,7.7c-1.4,2.5,0,3.9,0.3,4.1c0.6,0.5,0.8,1.5,0.3,2.1C44.4,25.3,43.9,25.5,43.5,25.5z"
			/>
	</g>
	<g>
		<linearGradient id="SVGID_4_" gradientUnits="userSpaceOnUse" x1="52.4319" y1="10.1588" x2="52.0687" y2="71.185">
			<stop  offset="0" style="stop-color:#FFA75C"/>
			<stop  offset="1" style="stop-color:#CD615A"/>
		</linearGradient>
		<path class="st3" d="M53,25.5c-0.3,0-0.6-0.1-0.9-0.3c-1.3-1-3.3-4-1.1-7.9c1.5-2.6,0.4-4,0.2-4.1c-0.5-0.6-0.5-1.5,0.1-2.1
			c0.6-0.6,1.5-0.6,2.1,0c0.1,0.1,2.9,2.9,0.3,7.7c-1.4,2.5,0,3.9,0.3,4.1c0.6,0.5,0.8,1.5,0.3,2.1C53.9,25.3,53.5,25.5,53,25.5z"/>
	</g>
	<g>
		<linearGradient id="SVGID_5_" gradientUnits="userSpaceOnUse" x1="46.7427" y1="10.125" x2="46.3794" y2="71.1511">
			<stop  offset="0" style="stop-color:#FFA75C"/>
			<stop  offset="1" style="stop-color:#CD615A"/>
		</linearGradient>
		<path class="st4" d="M72.1,74.2H20.6c-0.8,0-1.5-0.7-1.5-1.5s0.7-1.5,1.5-1.5h51.5c0.8,0,1.5,0.7,1.5,1.5S73,74.2,72.1,74.2z"/>
	</g>
	<g>
		<linearGradient id="SVGID_6_" gradientUnits="userSpaceOnUse" x1="67.0257" y1="10.2457" x2="66.6624" y2="71.2718">
			<stop  offset="0" style="stop-color:#FFA75C"/>
			<stop  offset="1" style="stop-color:#CD615A"/>
		</linearGradient>
		<path class="st5" d="M62.8,53.2c-0.2,0-0.5-0.1-0.7-0.3c-0.3-0.3-0.4-0.7-0.3-1c0.5-1.7,1-3.6,1.4-5.6c0-0.2,0.1-0.3,0.2-0.5
			c0.8-1,3.7-4,5.9-3.4c1.6,0.4,2.2,2,2.3,2.4c0.1,0.3,0.9,3.2-1.9,5l0,0c-1.8,1.1-4.6,2.4-6.6,3.3C63,53.2,62.9,53.2,62.8,53.2z
			 M65.1,47c-0.2,1.2-0.5,2.4-0.8,3.5c1.5-0.7,3.2-1.5,4.3-2.3l0,0c1.5-1,1.1-2.5,1.1-2.8c0-0.2-0.3-0.9-0.9-1
			C68.2,44.2,66.6,45.4,65.1,47z M69.2,49L69.2,49L69.2,49z"/>
	</g>
</g>
</svg>
