<?xml version="1.0" encoding="utf-8"?>
<!-- Generator: Adobe Illustrator 25.0.1, SVG Export Plug-In . SVG Version: 6.00 Build 0)  -->
<svg version="1.1" id="圖層_1" xmlns="http://www.w3.org/2000/svg" xmlns:xlink="http://www.w3.org/1999/xlink" x="0px" y="0px"
	 viewBox="0 0 89.9 84.8" style="enable-background:new 0 0 89.9 84.8;" xml:space="preserve">
<style type="text/css">
	.st0{fill:#848484;}
</style>
<g>
	<g>
		<g>
			<path class="st0" d="M71.2,74.2H18.7c-2.3,0-4.5-1.2-5.7-3.2c-1.2-2-1.3-4.4-0.2-6.5l26.3-50.3c1.1-2.2,3.4-3.6,5.9-3.6
				s4.7,1.4,5.9,3.6l26.3,50.3c1.1,2.1,1,4.5-0.2,6.5C75.7,73,73.6,74.2,71.2,74.2z M41.7,15.6L15.5,65.8c-0.6,1.1-0.6,2.5,0.1,3.6
				c0.7,1.1,1.8,1.7,3.1,1.7h52.6c1.3,0,2.4-0.7,3.1-1.7c0.7-1.1,0.7-2.4,0.1-3.6L48.2,15.6c-0.6-1.2-1.8-1.9-3.2-1.9
				S42.4,14.4,41.7,15.6L41.7,15.6z"/>
		</g>
		<g>
			<path class="st0" d="M45,57.9c-1.7,0.1-3.5,1.4-3.4,3.8c0.1,2.3,2,3.5,3.8,3.4c1.7-0.1,3.5-1.4,3.4-3.8
				C48.6,59,46.7,57.8,45,57.9z"/>
			<path class="st0" d="M42.6,36.3l0.7,17.3c0,0.5,0.4,0.8,0.9,0.8h1.8c0.5,0,0.8-0.4,0.9-0.8l0.7-17.3l0-4.2c0-0.2-0.1-0.4-0.2-0.6
				c-0.2-0.2-0.4-0.3-0.6-0.3h-3.4c-0.2,0-0.4,0.1-0.6,0.3c-0.2,0.2-0.3,0.4-0.2,0.6L42.6,36.3C42.6,36.3,42.6,36.3,42.6,36.3z"/>
		</g>
	</g>
</g>
</svg>
